# xmcd CD database file generated by OrangeCD 6.1
#
# Track frame offsets:
#	182
#	17837
#	37692
#	58712
#	80725
#	98692
#	117495
#	136375
#	152637
#	171522
#
# Disc length: 2573 seconds
#
# Revision: 1
# Processed by: cddbd v1.5.2PL0 Copyright (c) Steve Scherf et al.
# Submitted via: OrangeCD 6.1
#
DISCID=7e0a0b0a
DTITLE=Birkett Chris - Men From The Sky
DYEAR=1994
DGENRE=Pop
TTITLE0=On Our Way
TTITLE1=We Can Make It
TTITLE2=Men From The Sky
TTITLE3=Where Do We Go From Here
TTITLE4=Dreamtime
TTITLE5=Why'd It Take So Long
TTITLE6=Lay Your Hands On Me
TTITLE7=Man-Go-Free
TTITLE8=Higher Than Dreams
TTITLE9=We Are Not The Only Ones
EXTD=
EXTT0=
EXTT1=
EXTT2=
EXTT3=
EXTT4=
EXTT5=
EXTT6=
EXTT7=
EXTT8=
EXTT9=
PLAYORDER=
